<?xml version="1.0" encoding="UTF-8"?>
<svg version="1.1" xmlns="http://www.w3.org/2000/svg" width="320" height="132">
<path d="M0 0 C9.24 0 18.48 0 28 0 C28.33 18.48 28.66 36.96 29 56 C35.36455191 47.5943641 35.36455191 47.5943641 41.12890625 38.78515625 C43.43501284 35.8361351 44.5525988 35.09545541 48.26123047 34.30419922 C52.18161377 34.11359326 56.02528681 34.21187726 59.9375 34.4375 C61.30260204 34.48270635 62.66784825 34.52376028 64.03320312 34.56054688 C67.35916709 34.66631958 70.67771696 34.81399794 74 35 C72.79937604 38.22483078 71.50763834 40.96014153 69.49609375 43.75 C69.00641113 44.43481445 68.51672852 45.11962891 68.01220703 45.82519531 C67.49255371 46.54288086 66.97290039 47.26056641 66.4375 48 C65.64255127 49.11906738 65.64255127 49.11906738 64.83154297 50.26074219 C62.30644243 53.81425007 59.7534847 57.34155819 57.13671875 60.828125 C56.49682007 61.70017578 56.49682007 61.70017578 55.84399414 62.58984375 C54.6926264 64.15789916 53.52264133 65.71223521 52.3515625 67.265625 C50.71970325 69.87849232 50.71970325 69.87849232 51.46484375 72.48828125 C53.34835921 75.56996177 55.54761738 78.24650045 57.9375 80.9375 C62.52561325 86.2229391 66.91665907 91.62446698 71.20678711 97.15405273 C74.06572163 100.8340146 76.99916253 104.43448881 80 108 C80.08636719 107.39671875 80.17273438 106.7934375 80.26171875 106.171875 C80.96586945 102.16661416 81.46482512 99.61162843 84.1875 96.5 C87.63585451 94.6608776 90.08594975 94.06866755 94 94 C97.60115926 95.24655513 99.47582284 96.35351484 101.875 99.3125 C103.23833511 102.56935609 103.50047119 104.49670169 103 108 C100.96006092 111.6578218 99.49580738 113.66946174 96 116 C90.47432024 116.5347432 90.47432024 116.5347432 88 116 C87.26934326 115.33218506 86.53868652 114.66437012 85.78588867 113.97631836 C82.27745456 111.48742395 80.53998652 111.6476163 76.29296875 111.91796875 C74.99069336 111.96324707 73.68841797 112.00852539 72.34667969 112.05517578 C71.66617554 112.07936584 70.98567139 112.10355591 70.2845459 112.128479 C60.51051505 112.40356742 51.9639977 112.55844458 44.25512695 105.7199707 C41.79447115 103.14906027 39.46096724 100.54391111 37.31738281 97.70166016 C35.9906488 95.98792108 34.56131918 94.50003482 33 93 C27.7340564 99.11528934 28.77500676 101.69991894 28 111 C18.76 111 9.52 111 0 111 C0 74.37 0 37.74 0 0 Z " fill="#D18800" transform="translate(176,8)"/>
<path d="M0 0 C9.9 0 19.8 0 30 0 C30 0.66 30 1.32 30 2 C30.99 1.67 31.98 1.34 33 1 C43.36835647 0.23337001 52.62835051 0.44577544 60.875 7.4375 C61.57625 8.283125 62.2775 9.12875 63 10 C63.70125 10.763125 64.4025 11.52625 65.125 12.3125 C70.95472532 20.66843963 71.14869335 30.00741732 71.09765625 39.8671875 C71.0962413 40.90191193 71.09482635 41.93663635 71.09336853 43.00271606 C71.08779039 46.29350732 71.07524188 49.58422946 71.0625 52.875 C71.05748218 55.11197818 71.05291976 57.34895743 71.04882812 59.5859375 C71.03868087 65.05733944 71.01910111 70.52859274 71 76 C61.1 76 51.2 76 41 76 C40.67 60.49 40.34 44.98 40 29 C33.36666667 29.23333333 33.36666667 29.23333333 31 32 C30.67043065 33.97760261 30.67043065 33.97760261 30.68115234 36.26611328 C30.66128265 37.14687531 30.64141296 38.02763733 30.62094116 38.93508911 C30.60361435 40.36327469 30.60361435 40.36327469 30.5859375 41.8203125 C30.56657135 42.79410858 30.5472052 43.76790466 30.5272522 44.77120972 C30.46735442 47.88905003 30.42103029 51.00692706 30.375 54.125 C30.33682961 56.23569341 30.29777844 58.34637108 30.2578125 60.45703125 C30.15998259 65.63794012 30.08049481 70.81867641 30 76 C20.1 76 10.2 76 0 76 C0 50.92 0 25.84 0 0 Z " fill="#D18700" transform="translate(102,43)"/>
<path d="M0 0 C9.57 0 19.14 0 29 0 C29 36.63 29 73.26 29 111 C19.43 111 9.86 111 0 111 C0 74.37 0 37.74 0 0 Z " fill="#D08700" transform="translate(40,8)"/>
<path d="M0 0 C9.57 0 19.14 0 29 0 C29 25.08 29 50.16 29 76 C19.43 76 9.86 76 0 76 C0 50.92 0 25.84 0 0 Z " fill="#D18700" transform="translate(71,43)"/>
<path d="M0 0 C4.05721556 1.43401585 6.99494588 3.32703017 9.234375 7.0546875 C11.04824261 11.65300099 11.39035795 15.49098957 9.8671875 20.2109375 C7.76630738 24.54518568 4.33832257 27.1682638 0 29 C-4.68683808 29.73285105 -8.14366361 29.44402628 -12.375 27.25 C-15.75593106 24.35205909 -17.59179295 22.22462114 -19 18 C-19.39614654 12.75105833 -18.86557317 9.44657906 -16 5 C-10.75600381 0.2676132 -6.9688819 -0.94324038 0 0 Z " fill="#D18700" transform="translate(90,8)"/>
</svg>
